<?xml version="1.0" encoding="UTF-8"?>
<svg version="1.1" xmlns="http://www.w3.org/2000/svg" width="4500" height="4500">
<path d="M0 0 C1485 0 2970 0 4500 0 C4500 1485 4500 2970 4500 4500 C3015 4500 1530 4500 0 4500 C0 3015 0 1530 0 0 Z " fill="#A61F23" transform="translate(0,0)"/>
<path d="M0 0 C1.83184778 -0.00400457 1.83184778 -0.00400457 3.70070259 -0.00809003 C5.06157937 -0.00600105 6.42245602 -0.00382142 7.78333253 -0.00156133 C9.23266254 -0.00280365 10.68199222 -0.0044841 12.13132127 -0.00656369 C16.14367352 -0.01103419 20.15600283 -0.00922761 24.16835572 -0.00646191 C28.53856552 -0.00454643 32.90877075 -0.00841709 37.2789793 -0.0115587 C44.97779986 -0.01628329 52.676614 -0.01725408 60.37543577 -0.01583035 C71.90099813 -0.01371461 83.4265538 -0.01731491 94.95211514 -0.02204513 C114.59181061 -0.02993064 134.23150428 -0.03300778 153.87120122 -0.03349106 C173.78461485 -0.03399289 193.69802644 -0.03663405 213.61143941 -0.04189865 C214.86743648 -0.04222879 216.12343356 -0.04255892 217.41749115 -0.04289906 C222.53267098 -0.044249 227.6478508 -0.04561167 232.76303062 -0.04699116 C289.0530029 -0.0621449 345.3429742 -0.06893495 401.63294813 -0.07341313 C402.34510238 -0.07346982 403.05725663 -0.07352651 403.79099131 -0.07358491 C407.39318699 -0.07387144 410.99538267 -0.07415647 414.59757834 -0.07443903 C444.7691384 -0.07681353 474.94069823 -0.08052308 505.11225811 -0.08447613 C519.55830033 -0.08636869 534.00434256 -0.08819718 548.4503848 -0.09001033 C549.16883656 -0.09010052 549.88728832 -0.09019071 550.62751135 -0.09028363 C585.2065726 -0.09461998 619.7856339 -0.09854829 654.36469525 -0.10201065 C655.1023456 -0.10208452 655.83999594 -0.1021584 656.59999933 -0.10223451 C703.61447256 -0.10692992 750.62894573 -0.10975267 797.64341916 -0.11139743 C801.49840804 -0.11153301 805.35339692 -0.11167204 809.2083858 -0.11181097 C815.38892477 -0.11203345 821.56946375 -0.11225482 827.75000273 -0.11247485 C828.51588145 -0.11250212 829.28176017 -0.11252939 830.07084733 -0.11255749 C831.61875284 -0.1126126 833.16665835 -0.11266771 834.71456386 -0.11272282 C845.57278344 -0.11310944 856.43100303 -0.11349738 867.28922262 -0.11389195 C871.1745336 -0.11403306 875.05984457 -0.11417313 878.94515555 -0.11431085 C952.32778084 -0.11691514 1025.71040402 -0.12224561 1099.09302777 -0.13819306 C1099.865556 -0.13836085 1100.63808423 -0.13852864 1101.43402241 -0.13870152 C1125.57115104 -0.14395221 1149.7082796 -0.14952656 1173.84540814 -0.15516083 C1198.61151631 -0.16094174 1223.37762448 -0.16667226 1248.14373273 -0.17211716 C1248.90628145 -0.17228497 1249.66883017 -0.17245277 1250.45448643 -0.17262567 C1298.20674684 -0.18311769 1345.95900666 -0.18998013 1393.71126813 -0.19298355 C1394.81746019 -0.19305377 1394.81746019 -0.19305377 1395.94599956 -0.19312541 C1428.33273267 -0.195176 1460.71946577 -0.19642014 1493.10619894 -0.19677146 C1506.13530556 -0.19691473 1519.16441218 -0.1971534 1532.1935188 -0.19743552 C1534.35383551 -0.19748105 1536.51415223 -0.1975227 1538.67446894 -0.19756363 C1571.72441181 -0.19820984 1604.77435226 -0.20116985 1637.82429379 -0.21102421 C1638.53718867 -0.21123658 1639.25008354 -0.21144895 1639.98458129 -0.21166776 C1651.45265559 -0.21509661 1662.92072982 -0.21870956 1674.38880405 -0.22234416 C1721.37245122 -0.23722752 1768.35608598 -0.24281171 1815.33973569 -0.23460158 C1821.72904397 -0.23348614 1828.11835226 -0.2324755 1834.50766057 -0.23152725 C1835.76018074 -0.23133729 1837.01270092 -0.23114732 1838.30317625 -0.23095159 C1858.16249709 -0.22821437 1878.02180093 -0.23557137 1897.88111807 -0.24710062 C1917.39327414 -0.25821948 1936.90540611 -0.25869471 1956.41756253 -0.24773044 C1967.8669622 -0.24161885 1979.3162893 -0.24376893 1990.76568219 -0.25798241 C1998.36275607 -0.2665982 2005.95977637 -0.2643989 2013.55684691 -0.2532837 C2017.86787913 -0.24728252 2022.17876874 -0.24597633 2026.48979167 -0.25796856 C2030.40402232 -0.26876968 2034.31799089 -0.26567665 2038.23220917 -0.25167589 C2039.6332641 -0.24905936 2041.03433996 -0.25140737 2042.43537402 -0.25948914 C2054.01320876 -0.32178086 2065.81036139 0.4652394 2075.08515424 8.12608917 C2080.93648957 13.93252935 2082.46331342 18.67071018 2082.52265424 26.81358917 C2082.55552533 27.55931183 2082.58839642 28.30503448 2082.62226361 29.0733548 C2082.75524555 43.78599256 2075.75330126 57.87023796 2069.58515424 70.87608917 C2068.8673769 72.4137724 2068.15101417 73.95211666 2067.43598431 75.4910794 C2065.99682469 78.58783873 2064.55337904 81.68253903 2063.10712689 84.77599151 C2060.2598929 90.88275063 2057.51353897 97.0334184 2054.77265424 103.18858917 C2049.46951145 115.05645217 2044.12970397 126.9074664 2038.77265424 138.75108917 C2038.36757642 139.64670563 2037.9624986 140.54232208 2037.54514569 141.46507843 C2031.6328976 154.53297403 2025.68285649 167.58317045 2019.70942181 180.62319 C2014.82704367 191.28411885 2009.99987886 201.96830636 2005.21503705 212.67345245 C2000.49273998 223.23347092 1995.7304719 233.77518469 1990.96015424 244.31358917 C1990.35679745 245.64657547 1990.35679745 245.64657547 1989.74125165 247.00649078 C1987.68006965 251.55999762 1985.61853502 256.11334469 1983.55683392 260.66661651 C1979.95808667 268.61489696 1976.36243031 276.56457551 1972.76661175 284.51418121 C1970.78959261 288.88487753 1968.8123625 293.2554784 1966.83515424 297.62608917 C1966.04348656 299.37608872 1965.2518199 301.12608872 1964.46015424 302.87608917 C1959.71015427 313.3760891 1959.71015427 313.3760891 1958.52277631 316.00081451 C1957.73069791 317.75172786 1956.93862435 319.50264339 1956.1465556 321.25356109 C1954.17372783 325.6146048 1952.20081757 329.97561115 1950.22773236 334.33653839 C1946.16792015 343.30981551 1942.10968302 352.28380072 1938.05390424 361.25890167 C1933.4029697 371.55037339 1928.74733563 381.83970736 1924.08515424 392.12608917 C1923.64782971 393.09128479 1923.64782971 393.09128479 1923.20167035 394.07597931 C1909.88504896 423.4586713 1895.99279004 452.49157405 1879.9713847 480.5108548 C1875.95999408 487.53290858 1872.09550996 494.6248869 1868.27265424 501.75108917 C1864.41694658 508.91816262 1860.49683318 515.96678356 1856.14374799 522.84483917 C1854.06589553 526.15678616 1852.0660636 529.50673002 1850.0729472 532.86998565 C1840.94453528 548.24628175 1831.44163796 563.41426215 1821.28437299 578.13390167 C1820.8897839 578.70705612 1820.49519482 579.28021057 1820.0886485 579.87073334 C1818.17820564 582.64250629 1816.25658795 585.40465042 1814.31684369 588.15611847 C1813.28950116 589.63592193 1813.28950116 589.63592193 1812.24140424 591.14562042 C1811.63103314 592.01291778 1811.02066205 592.88021515 1810.39179486 593.77379425 C1808.76142823 596.26040791 1808.76142823 596.26040791 1809.08515424 600.12608917 C1809.88874977 601.89821541 1809.88874977 601.89821541 1811.09784955 603.58336456 C1811.54005841 604.24320343 1811.98226727 604.9030423 1812.4378764 605.58287628 C1813.16820081 606.6426065 1813.16820081 606.6426065 1813.91327924 607.72374542 C1814.66366467 608.83652862 1814.66366467 608.83652862 1815.42920941 609.9717923 C1816.50078389 611.55909538 1817.57642316 613.14366049 1818.65571088 614.72572906 C1820.90382566 618.02253106 1823.13058025 621.33352766 1825.35810345 624.64426239 C1826.45384316 626.27271306 1827.55051712 627.9005355 1828.64814252 629.52771576 C1852.99128867 665.62935026 1874.21466388 703.99997067 1894.22577924 742.63390167 C1895.98077113 746.0185289 1897.75616569 749.38957614 1899.56952924 752.74327667 C1910.68840923 773.36090232 1920.12657832 794.85477035 1929.66439313 816.23621185 C1934.14427238 826.27803539 1938.67490103 836.2966726 1943.21015424 846.31358917 C1944.02485679 848.11339146 1944.83955403 849.91319616 1945.65424603 851.71300323 C1947.30713321 855.36429326 1948.96025048 859.01547902 1950.61347455 862.66661651 C1954.21250934 870.61553203 1957.80842766 878.56585714 1961.40452069 886.51610382 C1962.58691194 889.12997486 1963.76947726 891.74376708 1964.95209759 894.35753448 C1968.54463107 902.29776559 1972.13636443 910.2383546 1975.72455853 918.18054779 C1977.74011471 922.64177663 1979.7562162 927.10275886 1981.77265424 931.56358917 C1982.1673692 932.43679809 1982.56208417 933.31000702 1982.96876019 934.20967682 C1988.4353272 946.30006873 1993.93397443 958.37533892 1999.46015424 970.43858917 C2004.67721661 981.82730642 2009.84353804 993.23695053 2014.95527142 1004.67345245 C2021.70488415 1019.76696182 2028.53475496 1034.8241869 2035.35511273 1049.88582428 C2038.22775758 1056.23018596 2041.09678277 1062.57617529 2043.96406049 1068.92296417 C2045.16885006 1071.58917643 2046.37372047 1074.25535212 2047.57865399 1076.92149933 C2048.37257128 1078.67828357 2049.16637479 1080.43511924 2049.96006268 1082.19200714 C2054.15611366 1091.47863919 2058.36676201 1100.75805035 2062.62421674 1110.01671417 C2062.98801938 1110.80872726 2063.35182202 1111.60074035 2063.72664899 1112.41675384 C2065.42501517 1116.11365422 2067.12672366 1119.8089238 2068.83588666 1123.50084503 C2082.43665811 1152.98800078 2082.43665811 1152.98800078 2082.46015424 1167.62608917 C2082.49689252 1168.83071808 2082.49689252 1168.83071808 2082.53437299 1170.05968292 C2082.5672282 1176.81690528 2080.7544325 1181.80609133 2076.51484174 1187.07921417 C2068.4542133 1193.80315548 2059.29543381 1196.24966289 2048.90781274 1196.25265101 C2047.67893213 1196.25542632 2046.45005153 1196.25820164 2045.18393212 1196.26106105 C2043.82479422 1196.25909167 2042.46565645 1196.25703138 2041.10651881 1196.25489034 C2039.65109956 1196.25625915 2038.19568067 1196.25806552 2036.74026245 1196.26026915 C2032.72031204 1196.26507597 2028.70038404 1196.26363203 2024.68043237 1196.26121145 C2020.29847676 1196.25967218 2015.91652618 1196.26392357 2011.53457224 1196.26743822 C2003.81815745 1196.27281901 1996.10174874 1196.27445438 1988.38533221 1196.27368747 C1976.83346089 1196.27255365 1965.28159668 1196.27712804 1953.72972696 1196.28281831 C1934.0444246 1196.29233816 1914.35912367 1196.29703881 1894.67381924 1196.29912765 C1874.71609391 1196.30125471 1854.75837077 1196.3055111 1834.80064648 1196.31237037 C1833.54154232 1196.31280099 1832.28243816 1196.3132316 1830.98517932 1196.31367527 C1825.85729333 1196.31543357 1820.72940735 1196.31720322 1815.60152137 1196.31898829 C1754.12829453 1196.34034614 1692.65506765 1196.3512641 1631.18183798 1196.36015052 C1610.29395066 1196.36317369 1589.40606345 1196.36663429 1568.51817626 1196.37043174 C1567.80720837 1196.37056085 1567.09624047 1196.37068997 1566.3637281 1196.37082299 C1559.89209123 1196.37199847 1553.42045436 1196.37317764 1546.94881749 1196.37436026 C1473.82562209 1196.3877149 1400.70242634 1196.40010908 1251.72816391 1196.41511929 C1244.77133176 1196.41564375 1237.81449961 1196.41618106 1230.85766746 1196.41671775 C1228.53437531 1196.41689696 1226.21108317 1196.41707593 1223.88779102 1196.41725484 C1209.12841699 1196.41839193 1194.36904296 1196.419538 1179.60966893 1196.42070304 C1175.71563862 1196.42101035 1171.82160831 1196.42131629 1167.927578 1196.42161895 C1094.37788772 1196.42733912 1020.8282009 1196.43658378 947.27851361 1196.45903595 C946.50418389 1196.45927218 945.72985416 1196.4595084 944.9320599 1196.45975179 C919.95986778 1196.46737974 894.98767579 1196.47542854 870.01548382 1196.48353706 C845.96989212 1196.49134457 821.92430039 1196.49906796 797.87870854 1196.50642689 C796.7322003 1196.50677802 796.7322003 1196.50677802 795.56253027 1196.50713625 C747.69836085 1196.52177162 699.83419237 1196.53157423 651.97002095 1196.53630169 C651.23083646 1196.53637528 650.49165198 1196.53644888 649.73006796 1196.5365247 C617.2677663 1196.53975059 584.80546466 1196.54191906 552.34316285 1196.5429077 C539.28372489 1196.54330852 526.22428693 1196.54384192 513.16484897 1196.54443913 C510.99950987 1196.5445366 508.83417077 1196.54462898 506.66883167 1196.54472051 C473.54248442 1196.54614943 440.41614161 1196.55072193 407.28979701 1196.56459649 C406.21799916 1196.5650451 406.21799916 1196.5650451 405.12454884 1196.56550276 C393.63018459 1196.57033139 382.13582045 1196.57541327 370.64145632 1196.58052876 C338.01456383 1196.59504408 305.38767655 1196.60756603 272.76078027 1196.6058106 C272.09887351 1196.60577583 271.43696674 1196.60574107 270.75500219 1196.60570525 C256.95981585 1196.60494123 243.16462979 1196.60324826 229.36944372 1196.6004039 C222.96565195 1196.59908538 216.56186017 1196.59790736 210.15806836 1196.59681328 C208.90271011 1196.59659343 207.64735186 1196.59637358 206.35395245 1196.59614707 C186.44958311 1196.59302869 166.54524428 1196.60337497 146.64088202 1196.61928883 C127.08457433 1196.63464666 107.52830898 1196.63581752 87.97199985 1196.62174059 C76.49668686 1196.61391043 65.02150296 1196.61709975 53.54620277 1196.63637775 C45.93198727 1196.6480824 38.31786642 1196.64536703 30.70365611 1196.63076311 C26.38284864 1196.6228844 22.06229439 1196.62126709 17.7415041 1196.63738215 C13.81839834 1196.65189764 9.89575697 1196.64788731 5.97267221 1196.62933049 C4.56843589 1196.62588195 3.16416263 1196.62905413 1.75996374 1196.63987087 C-14.76961581 1196.75866512 -28.54542795 1191.43076726 -40.66484576 1180.06358917 C-56.50182328 1163.42676431 -61.3875217 1142.20598314 -61.2951625 1119.9239455 C-61.29859947 1118.08347165 -61.30334859 1116.24299987 -61.30928347 1114.40253238 C-61.32177887 1109.34816866 -61.31564946 1104.29397398 -61.30644979 1099.23960953 C-61.29973761 1093.73953041 -61.31040732 1088.23948027 -61.31884563 1082.73940732 C-61.33122075 1073.10066417 -61.3324213 1063.46196969 -61.3262952 1053.82322128 C-61.31763493 1040.16076307 -61.32416393 1026.49834892 -61.33499286 1012.83589371 C-61.35638207 985.82131751 -61.35844932 958.80676385 -61.35293582 931.79218131 C-61.35218008 928.06057198 -61.35145246 924.32896264 -61.35075384 920.59735329 C-61.35061475 919.85614148 -61.35047566 919.11492966 -61.35033235 918.35125687 C-61.34737896 901.91847765 -61.35039396 885.48570114 -61.35465013 869.05292241 C-61.35523229 866.80331125 -61.35580114 864.55370009 -61.35636576 862.30408893 C-61.35788075 856.27347437 -61.35940766 850.24285981 -61.36095877 844.21224526 C-61.37171454 802.11639146 -61.37641838 760.02054017 -61.36848861 717.92468555 C-61.3683403 717.13129506 -61.368192 716.33790457 -61.3680392 715.52047194 C-61.36638023 706.67350376 -61.36463064 697.82653561 -61.36284619 688.97956746 C-61.36268516 688.18083034 -61.36252414 687.38209321 -61.36235823 686.55915193 C-61.3610506 680.07747463 -61.3610506 680.07747463 -61.36039705 676.86869363 C-61.35000664 625.78301103 -61.35777033 574.69736287 -61.3813985 523.61168487 C-61.38734202 510.7401935 -61.39323364 497.86870211 -61.39880782 484.99721058 C-61.39915159 484.20463659 -61.39949536 483.4120626 -61.39984955 482.59547122 C-61.41037914 458.1632926 -61.415971 433.73111686 -61.41636497 409.29893596 C-61.41637775 408.53173875 -61.41639053 407.76454154 -61.4164037 406.97409592 C-61.41663201 390.13137035 -61.41562576 373.28864503 -61.41349465 356.44591959 C-61.4127399 350.41913605 -61.41206169 344.39235249 -61.4114145 338.36556893 C-61.41125181 336.86629081 -61.41108414 335.36701269 -61.41091148 333.86773456 C-61.40819175 309.99109366 -61.41673838 286.11447369 -61.43076559 262.23783729 C-61.44518229 237.51691064 -61.44471171 212.79602375 -61.42739087 188.07509845 C-61.41781973 173.82582475 -61.41927941 159.57665306 -61.43662555 145.32738615 C-61.44710491 135.80794323 -61.44302883 126.28857811 -61.42714552 116.76914286 C-61.41850356 111.34617178 -61.41611415 105.92340077 -61.43141484 100.50043987 C-61.44522263 95.55992516 -61.44038493 90.61978128 -61.42112965 85.679288 C-61.41741621 83.90997706 -61.42028915 82.14063573 -61.43084273 80.37135237 C-61.5101116 66.08966544 -60.17467801 51.51842531 -53.16484576 38.75108917 C-52.82268024 38.09954864 -52.48051471 37.44800812 -52.12798053 36.77672394 C-42.04321668 18.06565078 -28.50887872 6.79387348 -8.10654511 0.57488771 C-5.36409464 0.01331079 -2.80068429 0.00056311 0 0 Z " fill="#FEFEFE" transform="translate(1280.914845764637,1651.8739108294249)"/>
<path d="M0 0 C0.33 0 0.66 0 1 0 C1 325.38 1 650.76 1 986 C-1.638085 982.48255333 -3.44966878 979.17734074 -5.23046875 975.21875 C-5.53756775 974.54607086 -5.84466675 973.87339172 -6.16107178 973.18032837 C-7.17482943 970.95576562 -8.18126866 968.72797607 -9.1875 966.5 C-9.90346275 964.92419622 -10.61969472 963.34851474 -11.33618164 961.77294922 C-16.60108724 950.1757289 -21.77359605 938.5378756 -26.92602539 926.89035034 C-32.08323052 915.23580783 -37.34956939 903.63532515 -42.6875 892.0625 C-48.16376675 880.18914842 -53.58681132 868.29636433 -58.91796875 856.35693359 C-63.64040943 845.78497463 -68.41055006 835.23492896 -73.1875 824.6875 C-79.16482672 811.48900805 -85.12526499 798.28316467 -91.0625 785.06658936 C-98.03198772 769.55350491 -105.06076094 754.06890587 -112.14466858 738.60775757 C-112.46688889 737.9044632 -112.78910919 737.20116882 -113.12109375 736.4765625 C-113.44174301 735.77673248 -113.76239227 735.07690247 -114.09275818 734.35586548 C-117.34368845 727.25664566 -120.57083185 720.14668444 -123.79714966 713.03625488 C-125.66520991 708.92165219 -127.53766889 704.80904928 -129.41004944 700.69641113 C-131.25997777 696.63167095 -133.10040053 692.56274695 -134.9375 688.4921875 C-146.76052271 662.43114835 -159.49127501 636.67155472 -173.48828125 611.70703125 C-175.17423741 608.68799348 -176.83786902 605.65721725 -178.5 602.625 C-187.33362789 586.54863455 -196.49893958 570.69114524 -206 555 C-206.58652344 554.03126953 -207.17304688 553.06253906 -207.77734375 552.06445312 C-214.04720637 541.76396453 -220.53317615 531.6428127 -227.3125 521.671875 C-228.4257977 520.02792455 -229.53907889 518.38396292 -230.65234375 516.73999023 C-232.85619135 513.4874924 -235.08045598 510.25026256 -237.31640625 507.01977539 C-238.33658678 505.5201355 -239.35614682 504.02007326 -240.375 502.51953125 C-240.85751221 501.83409241 -241.34002441 501.14865356 -241.8371582 500.44244385 C-243.63046599 497.7742683 -244.97789008 495.74767787 -245.07446289 492.48193359 C-243.56209173 488.98846274 -241.56648846 485.90452909 -239.43359375 482.76953125 C-238.73469025 481.72026207 -238.73469025 481.72026207 -238.02166748 480.64979553 C-237.02049789 479.1475547 -236.01595862 477.64755519 -235.00839233 476.14959717 C-232.35671977 472.20456777 -229.73317912 468.24094178 -227.109375 464.27734375 C-226.32200203 463.0891806 -226.32200203 463.0891806 -225.51872253 461.87701416 C-215.20547644 446.27314075 -205.5650257 430.22492926 -196.1875 414.04394531 C-194.934328 411.88696424 -193.67081401 409.73625751 -192.40625 407.5859375 C-186.10820418 396.83979703 -180.11675205 385.94498137 -174.22265625 374.97265625 C-172.25841005 371.31828532 -170.27314491 367.67848541 -168.24609375 364.05859375 C-152.65737645 336.13649947 -138.72643813 307.26284342 -125.71353149 278.06195068 C-123.53420463 273.1758517 -121.31932703 268.30692133 -119.0859375 263.4453125 C-118.75594757 262.72692703 -118.42595764 262.00854156 -118.08596802 261.26838684 C-117.41493454 259.80789561 -116.74384257 258.34743124 -116.07269287 256.88699341 C-109.96882504 243.59703915 -103.98586479 230.257258 -98.07067871 216.88238525 C-92.91452831 205.23052431 -87.64922441 193.63271005 -82.3125 182.0625 C-76.83623325 170.18914842 -71.41318868 158.29636433 -66.08203125 146.35693359 C-61.35959017 135.78497373 -56.58929822 125.23499831 -51.8125 114.6875 C-45.5238522 100.79963829 -39.25114952 86.90478063 -33 73 C-26.58026848 58.72110973 -20.14147445 44.45094654 -13.6875 30.1875 C-13.2845874 29.29699951 -12.8816748 28.40649902 -12.46655273 27.48901367 C-8.31872542 18.32251148 -4.16863868 9.1570623 0 0 Z " fill="#A61F23" transform="translate(2276,1757)"/>
</svg>
